<?xml version="1.0" encoding="UTF-8" standalone="no"?>
<!-- Created with Inkscape (http://www.inkscape.org/) -->

<svg
   xmlns:dc="http://purl.org/dc/elements/1.1/"
   xmlns:cc="http://creativecommons.org/ns#"
   xmlns:rdf="http://www.w3.org/1999/02/22-rdf-syntax-ns#"
   xmlns:svg="http://www.w3.org/2000/svg"
   xmlns="http://www.w3.org/2000/svg"
   xmlns:sodipodi="http://sodipodi.sourceforge.net/DTD/sodipodi-0.dtd"
   xmlns:inkscape="http://www.inkscape.org/namespaces/inkscape"
   width="183.19942mm"
   height="53.997063mm"
   viewBox="0 0 183.19942 53.997063"
   version="1.1"
   id="svg8"
   sodipodi:docname="sailing_logo_path.svg"
   inkscape:version="0.92.2 2405546, 2018-03-11">
  <defs
     id="defs2" />
  <sodipodi:namedview
     id="base"
     pagecolor="#ffffff"
     bordercolor="#666666"
     borderopacity="1.0"
     inkscape:pageopacity="0.0"
     inkscape:pageshadow="2"
     inkscape:zoom="1"
     inkscape:cx="298.66359"
     inkscape:cy="113.96504"
     inkscape:document-units="mm"
     inkscape:current-layer="layer1"
     showgrid="false"
     inkscape:window-width="3200"
     inkscape:window-height="1658"
     inkscape:window-x="0"
     inkscape:window-y="58"
     inkscape:window-maximized="1"
     inkscape:pagecheckerboard="true"
     fit-margin-top="4"
     fit-margin-left="2"
     fit-margin-right="2"
     fit-margin-bottom="4" />
  <metadata
     id="metadata5">
    <rdf:RDF>
      <cc:Work
         rdf:about="">
        <dc:format>image/svg+xml</dc:format>
        <dc:type
           rdf:resource="http://purl.org/dc/dcmitype/StillImage" />
        <dc:title></dc:title>
      </cc:Work>
    </rdf:RDF>
  </metadata>
  <g
     inkscape:groupmode="layer"
     id="layer2"
     inkscape:label="hex"
     style="display:inline"
     transform="translate(-8.3895954,-116.8621)" />
  <g
     inkscape:label="logo"
     inkscape:groupmode="layer"
     id="layer1"
     style="display:inline"
     transform="translate(-8.3895954,-116.8621)">
    <g
       id="g4887"
       transform="matrix(0.32000001,0,0,0.32000001,-2.5870755,91.958893)">
      <g
         id="g4866"
         style="display:inline">
        <path
           inkscape:connector-curvature="0"
           id="path4846"
           d="m 103.0521,232.13486 -30.285741,-17.48551 -30.285762,-17.48546 2.8e-5,-34.97097 -3e-5,-34.97097 30.285764,-17.48546 30.285731,-17.485513 30.28574,17.485513 30.28576,17.48546 -3e-5,34.97097 3e-5,34.97097 -30.28576,17.48546 z"
           inkscape:transform-center-y="-1.0292717e-05"
           inkscape:transform-center-x="-3.3125827e-05"
           style="opacity:1;fill:#ffffff;fill-opacity:1;stroke:#ffffff;stroke-width:3.85700011;stroke-linecap:butt;stroke-linejoin:round;stroke-miterlimit:4;stroke-dasharray:none;stroke-opacity:1;paint-order:normal" />
      </g>
      <path
         id="path891"
         d="m 102.81593,125.44452 c -19.135597,0.0768 -35.534773,13.48543 -39.541261,32.02543 h 1.282095 c 3.981981,-17.83844 19.799977,-30.70108 38.262776,-30.7759 h 5.3e-4 0.002 c 0.0522,-1.1e-4 0.10486,-1.1e-4 0.15709,0 h 5.3e-4 5.3e-4 c 13.66927,1.3e-4 25.70565,6.95929 32.76493,17.52813 h 1.48518 c -7.21786,-11.28924 -19.8626,-18.77716 -34.25011,-18.77766 -0.0544,-1.2e-4 -0.10837,-1.2e-4 -0.16278,0 h -0.001 z m 35.25831,22.74641 c 2.73711,5.3644 4.28081,11.44014 4.28087,17.87798 -0.002,1.36864 -0.0776,2.73094 -0.22117,4.08244 h 1.25677 c 0.13856,-1.35149 0.21079,-2.71325 0.21291,-4.08089 v -5.3e-4 -5.3e-4 c 2e-5,-6.41511 -1.49054,-12.48271 -4.14084,-17.8785 z m -75.410385,13.24777 -0.205155,1.71462 -0.0011,0.015 c -0.06902,0.96555 -0.103465,1.93309 -0.103351,2.90111 v 5.3e-4 0.001 c 0.01458,6.81767 1.745858,13.49282 4.995042,19.42569 h 1.442291 c -3.369344,-5.89814 -5.172892,-12.58691 -5.187799,-19.42724 v -0.001 -5.3e-4 c -7.1e-5,-0.93376 0.03344,-1.86739 0.09974,-2.79879 l 0.219106,-1.83038 z m 78.842215,12.6814 c -1.08533,5.138 -3.19611,10.03089 -6.22649,14.38207 h 1.52393 c 2.91307,-4.38072 4.93801,-9.26685 5.98052,-14.38207 z"
         style="color:#000000;font-style:normal;font-variant:normal;font-weight:normal;font-stretch:normal;font-size:medium;line-height:normal;font-family:sans-serif;font-variant-ligatures:normal;font-variant-position:normal;font-variant-caps:normal;font-variant-numeric:normal;font-variant-alternates:normal;font-feature-settings:normal;text-indent:0;text-align:start;text-decoration:none;text-decoration-line:none;text-decoration-style:solid;text-decoration-color:#000000;letter-spacing:normal;word-spacing:normal;text-transform:none;writing-mode:lr-tb;direction:ltr;text-orientation:mixed;dominant-baseline:auto;baseline-shift:baseline;text-anchor:start;white-space:normal;shape-padding:0;clip-rule:nonzero;display:inline;overflow:visible;visibility:visible;opacity:1;isolation:auto;mix-blend-mode:normal;color-interpolation:sRGB;color-interpolation-filters:linearRGB;solid-color:#000000;solid-opacity:1;vector-effect:none;fill:#081c92;fill-opacity:1;fill-rule:nonzero;stroke:#081c92;stroke-width:0.30000001;stroke-linecap:round;stroke-linejoin:bevel;stroke-miterlimit:4;stroke-dasharray:none;stroke-dashoffset:0;stroke-opacity:1;color-rendering:auto;image-rendering:auto;shape-rendering:auto;text-rendering:auto;enable-background:accumulate"
         inkscape:connector-curvature="0" />
      <path
         inkscape:connector-curvature="0"
         id="path4693"
         d="m 63.990925,157.46994 14.156254,0.0288 v 0"
         style="fill:none;stroke:#081c92;stroke-width:1.70000005;stroke-linecap:round;stroke-linejoin:miter;stroke-miterlimit:4;stroke-dasharray:none;stroke-opacity:1" />
      <path
         inkscape:connector-curvature="0"
         id="path4693-5"
         d="m 124.75539,148.67224 14.15633,-0.0288 v 0"
         style="fill:none;stroke:#081c92;stroke-width:1.70000005;stroke-linecap:round;stroke-linejoin:miter;stroke-miterlimit:4;stroke-dasharray:none;stroke-opacity:1" />
      <path
         inkscape:connector-curvature="0"
         id="path4693-5-3"
         d="m 138.95244,169.61615 3.33584,-0.10748 v 0"
         style="fill:none;stroke:#081c92;stroke-width:1.70000005;stroke-linecap:round;stroke-linejoin:miter;stroke-miterlimit:4;stroke-dasharray:none;stroke-opacity:1" />
      <path
         inkscape:connector-curvature="0"
         id="path4693-56"
         d="m 126.41782,188.7869 22.34555,0.0186 v 0"
         style="fill:none;stroke:#081c92;stroke-width:1.70000005;stroke-linecap:round;stroke-linejoin:miter;stroke-miterlimit:4;stroke-dasharray:none;stroke-opacity:1" />
      <path
         inkscape:connector-curvature="0"
         id="path4693-56-2"
         d="m 57.342402,188.78541 19.149019,0.0221 v 0"
         style="fill:none;stroke:#081c92;stroke-width:1.70000005;stroke-linecap:round;stroke-linejoin:miter;stroke-miterlimit:4;stroke-dasharray:none;stroke-opacity:1" />
      <path
         inkscape:connector-curvature="0"
         id="path4755"
         d="m 100.06571,137.93045 v 44.70602"
         style="fill:none;stroke:#081c92;stroke-width:1.70000005;stroke-linecap:round;stroke-linejoin:miter;stroke-miterlimit:4;stroke-dasharray:none;stroke-opacity:1" />
      <path
         inkscape:connector-curvature="0"
         id="path4757"
         d="m 99.878904,149.35876 -10.086413,27.31021 h 4.109293"
         style="fill:none;stroke:#081c92;stroke-width:1.70000005;stroke-linecap:round;stroke-linejoin:round;stroke-miterlimit:4;stroke-dasharray:none;stroke-opacity:1" />
      <path
         inkscape:connector-curvature="0"
         id="path4761"
         d="m 100.35832,145.2484 15.19645,33.1226 h -9.37121"
         style="fill:none;stroke:#081c92;stroke-width:1.70000005;stroke-linecap:round;stroke-linejoin:round;stroke-miterlimit:4;stroke-dasharray:none;stroke-opacity:1" />
      <path
         sodipodi:nodetypes="ccccc"
         inkscape:connector-curvature="0"
         id="path4763"
         d="m 113.32751,188.31592 2.05468,-5.42186 H 87.924633 l 3.735741,5.6227 h 17.184276"
         style="fill:none;stroke:#081c92;stroke-width:1.70000005;stroke-linecap:round;stroke-linejoin:round;stroke-miterlimit:4;stroke-dasharray:none;stroke-opacity:1;paint-order:stroke fill markers" />
      <path
         inkscape:connector-curvature="0"
         id="path4765"
         d="m 100.54497,141.36078 h 3.48606 v 0"
         style="fill:none;stroke:#081c92;stroke-width:1.70000005;stroke-linecap:round;stroke-linejoin:miter;stroke-miterlimit:4;stroke-dasharray:none;stroke-opacity:1" />
      <path
         inkscape:connector-curvature="0"
         id="path4693-56-2-9"
         d="m 72.694831,193.35745 7.976918,0.0494 v 0"
         style="fill:none;stroke:#081c92;stroke-width:1.70000005;stroke-linecap:round;stroke-linejoin:miter;stroke-miterlimit:4;stroke-dasharray:none;stroke-opacity:1" />
      <path
         inkscape:connector-curvature="0"
         id="path4693-56-2-9-1"
         d="m 86.47382,193.3778 46.53563,0.01 v 0"
         style="fill:none;stroke:#081c92;stroke-width:1.70000005;stroke-linecap:round;stroke-linejoin:miter;stroke-miterlimit:4;stroke-dasharray:none;stroke-opacity:1" />
      <path
         inkscape:connector-curvature="0"
         id="path4693-56-2-9-2"
         d="m 118.48601,198.26688 7.97697,0.0494 v 0"
         style="fill:none;stroke:#081c92;stroke-width:1.70000005;stroke-linecap:round;stroke-linejoin:miter;stroke-miterlimit:4;stroke-dasharray:none;stroke-opacity:1" />
      <path
         inkscape:connector-curvature="0"
         id="path4693-56-2-9-1-7"
         d="m 80.978602,198.28453 31.140388,0.0141 v 0"
         style="fill:none;stroke:#081c92;stroke-width:1.70000005;stroke-linecap:round;stroke-linejoin:miter;stroke-miterlimit:4;stroke-dasharray:none;stroke-opacity:1" />
    </g>
    <g
       id="text4891"
       style="font-style:normal;font-variant:normal;font-weight:normal;font-stretch:normal;font-size:4.23333311px;line-height:1.25;font-family:'Liberation Sans';-inkscape-font-specification:'Liberation Sans';letter-spacing:0px;word-spacing:0px;fill:#000000;fill-opacity:1;stroke:none;stroke-width:0.26458332"
       aria-label="kubesimple">
      <path
         inkscape:connector-curvature="0"
         id="path913"
         style="font-style:normal;font-variant:normal;font-weight:normal;font-stretch:normal;font-size:24.69444466px;font-family:'Varela Round';-inkscape-font-specification:'Varela Round';fill:#ffffff;fill-opacity:1;stroke-width:0.26458332"
         d="m 67.694528,151.05021 q 0.246944,0.32102 0.246944,0.74083 0,0.4198 -0.321028,0.71614 -0.321027,0.29633 -0.716139,0.29633 -0.592666,0 -1.012472,-0.46919 l -4.247444,-5.7785 -2.148417,1.95086 v 3.18558 q 0,0.4692 -0.345722,0.79022 -0.321028,0.32103 -0.790222,0.32103 -0.469195,0 -0.790223,-0.32103 -0.321027,-0.32102 -0.321027,-0.79022 v -16.02669 q 0,-0.4692 0.321027,-0.79023 0.321028,-0.34572 0.790223,-0.34572 0.469194,0 0.790222,0.34572 0.345722,0.32103 0.345722,0.79023 v 10.10002 l 5.877278,-5.43277 q 0.395111,-0.32103 0.889,-0.32103 0.493889,0 0.716139,0.37042 0.22225,0.34572 0.22225,0.59266 0,0.54328 -0.419806,0.96309 l -3.556,3.18558 z" />
      <path
         inkscape:connector-curvature="0"
         id="path915"
         style="font-style:normal;font-variant:normal;font-weight:normal;font-stretch:normal;font-size:24.69444466px;font-family:'Varela Round';-inkscape-font-specification:'Varela Round';fill:#ffffff;fill-opacity:1;stroke-width:0.26458332"
         d="m 75.618357,150.85265 q 2.173111,0 4.049889,-2.37067 v -7.40833 q 0,-0.46919 0.321028,-0.79022 0.345722,-0.32103 0.814917,-0.32103 0.469194,0 0.790222,0.32103 0.321028,0.32103 0.321028,0.79022 v 10.59392 q 0,0.49389 -0.321028,0.81491 -0.321028,0.32103 -0.790222,0.32103 -0.469195,0 -0.814917,-0.32103 -0.321028,-0.32102 -0.321028,-0.81491 v -1.01248 q -0.987778,1.03717 -1.703917,1.45698 -1.407583,0.81491 -2.691694,0.81491 -1.259417,0 -2.074333,-0.37041 -0.814917,-0.39511 -1.382889,-1.06186 -1.160639,-1.3582 -1.160639,-3.40784 v -7.01322 q 0,-0.46919 0.321028,-0.79022 0.345722,-0.32103 0.814916,-0.32103 0.469195,0 0.790223,0.32103 0.321027,0.32103 0.321027,0.79022 v 6.76628 q 0,1.40758 0.617361,2.2225 0.642056,0.79022 2.099028,0.79022 z" />
      <path
         inkscape:connector-curvature="0"
         id="path917"
         style="font-style:normal;font-variant:normal;font-weight:normal;font-stretch:normal;font-size:24.69444466px;font-family:'Varela Round';-inkscape-font-specification:'Varela Round';fill:#ffffff;fill-opacity:1;stroke-width:0.26458332"
         d="m 88.048924,141.71571 q 1.827389,-1.87678 4.22275,-1.87678 2.395361,0 4.099278,1.70391 1.876777,1.87678 1.876777,4.84012 0,3.01272 -1.876777,4.8648 -1.728611,1.67922 -4.123973,1.67922 -2.370666,0 -4.198055,-1.87677 v 0.64205 q 0,0.4692 -0.321028,0.79022 -0.321028,0.32103 -0.814917,0.32103 -0.469194,0 -0.790222,-0.32103 -0.321028,-0.32102 -0.321028,-0.79022 v -16.02669 q 0,-0.49389 0.321028,-0.81492 0.321028,-0.32103 0.790222,-0.32103 0.493889,0 0.814917,0.32103 0.321028,0.32103 0.321028,0.81492 z m 0,7.26016 q 1.679222,1.85209 3.901722,1.85209 2.815167,0 3.753556,-2.51884 0.296333,-0.83961 0.296333,-1.92616 0,-2.12373 -1.135944,-3.33375 -1.086556,-1.11125 -2.913945,-1.11125 -2.2225,0 -3.901722,1.85208 z" />
      <path
         inkscape:connector-curvature="0"
         id="path919"
         style="font-style:normal;font-variant:normal;font-weight:normal;font-stretch:normal;font-size:24.69444466px;font-family:'Varela Round';-inkscape-font-specification:'Varela Round';fill:#ffffff;fill-opacity:1;stroke-width:0.26458332"
         d="m 102.91151,147.17318 q 0.19755,1.67922 1.25941,2.667 1.06186,0.98778 2.96334,0.98778 1.90147,0 3.18558,-0.64206 0.4445,-0.22225 0.76553,-0.22225 0.32102,0 0.61736,0.27164 0.29633,0.27164 0.29633,0.61736 0,0.64206 -0.54328,0.93839 -0.51858,0.27164 -0.93839,0.46919 -0.4198,0.19756 -0.91369,0.34573 -1.11125,0.32102 -2.56822,0.32102 -3.03742,0 -4.71664,-1.70391 -1.67922,-1.70392 -1.67922,-4.84011 0,-2.71639 1.40758,-4.51909 1.58044,-2.02494 4.49439,-2.02494 2.76578,0 4.37092,1.87678 1.50636,1.7533 1.50636,4.34622 0,0.46919 -0.32103,0.79022 -0.29633,0.32103 -0.81492,0.32103 z m 3.63008,-5.43278 q -2.19781,0 -3.21028,1.95086 -0.37042,0.69145 -0.4198,1.65453 h 7.28486 q -0.0988,-1.75331 -1.28411,-2.76578 -0.98778,-0.83961 -2.37067,-0.83961 z" />
      <path
         inkscape:connector-curvature="0"
         id="path921"
         style="font-style:normal;font-variant:normal;font-weight:normal;font-stretch:normal;font-size:24.69444466px;font-family:'Varela Round';-inkscape-font-specification:'Varela Round';fill:#ffffff;fill-opacity:1;stroke-width:0.26458332"
         d="m 119.4645,150.85265 q 2.74109,0 2.74109,-1.75331 0,-0.54327 -0.54328,-0.81491 -0.54328,-0.29634 -1.38289,-0.51859 -0.81492,-0.22225 -1.778,-0.4445 -0.96308,-0.24694 -1.8027,-0.66675 -0.81491,-0.4198 -1.35819,-1.08655 -0.54328,-0.69145 -0.54328,-1.67922 0,-0.98778 0.29634,-1.70392 0.29633,-0.71614 0.889,-1.23472 1.3088,-1.11125 3.63008,-1.11125 1.85208,0 3.58069,0.61736 0.34573,0.12347 0.51859,0.39511 0.19755,0.27164 0.19755,0.61736 0,0.32103 -0.29633,0.61736 -0.27164,0.29634 -0.54328,0.29634 -0.27164,0 -0.66675,-0.12348 -1.18533,-0.37041 -2.59291,-0.37041 -1.40759,0 -2.14842,0.49389 -0.71614,0.49388 -0.71614,1.18533 0,0.69144 0.54328,1.03717 0.56797,0.32102 1.38289,0.54327 0.81491,0.22225 1.778,0.4445 0.98777,0.22225 1.80269,0.61736 1.92617,0.98778 1.92617,3.06212 0,1.58044 -1.18534,2.56822 -1.28411,1.08655 -3.58069,1.08655 -2.49414,0 -4.49439,-1.11125 -0.41981,-0.29633 -0.41981,-0.74083 0,-0.4445 0.27164,-0.74083 0.27164,-0.32103 0.59267,-0.32103 0.32103,0 0.76553,0.19755 1.43228,0.64206 3.13619,0.64206 z" />
      <path
         inkscape:connector-curvature="0"
         id="path923"
         style="font-style:normal;font-variant:normal;font-weight:normal;font-stretch:normal;font-size:24.69444466px;font-family:'Varela Round';-inkscape-font-specification:'Varela Round';fill:#ffffff;fill-opacity:1;stroke-width:0.26458332"
         d="m 127.42769,141.09834 q 0,-0.49388 0.32102,-0.81491 0.32103,-0.32103 0.79023,-0.32103 0.49389,0 0.81491,0.32103 0.32103,0.32103 0.32103,0.81491 v 10.59392 q 0,0.4692 -0.32103,0.79022 -0.32102,0.32103 -0.81491,0.32103 -0.4692,0 -0.79023,-0.32103 -0.32102,-0.32102 -0.32102,-0.79022 z m 2.46944,-4.84011 q 0,0.51859 -0.37042,0.889 -0.37041,0.37042 -0.889,0.37042 h -0.14816 q -0.51859,0 -0.889,-0.37042 -0.37042,-0.37041 -0.37042,-0.889 v -0.0988 q 0,-0.51858 0.37042,-0.889 0.37041,-0.37041 0.889,-0.37041 h 0.14816 q 0.51859,0 0.889,0.37041 0.37042,0.37042 0.37042,0.889 z" />
      <path
         inkscape:connector-curvature="0"
         id="path925"
         style="font-style:normal;font-variant:normal;font-weight:normal;font-stretch:normal;font-size:24.69444466px;font-family:'Varela Round';-inkscape-font-specification:'Varela Round';fill:#ffffff;fill-opacity:1;stroke-width:0.26458332"
         d="m 135.94264,142.11082 q 1.50636,-2.27189 4.19806,-2.27189 1.3335,0 2.42005,0.79022 0.889,0.61736 1.3582,1.75331 0.69144,-1.08656 1.35819,-1.53106 1.40759,-1.01247 3.18559,-1.01247 2.00025,0 3.13619,1.53105 0.98778,1.30881 0.98778,3.21028 v 7.112 q 0,0.4692 -0.34572,0.79022 -0.32103,0.32103 -0.79023,0.32103 -0.46919,0 -0.79022,-0.32103 -0.32103,-0.32102 -0.32103,-0.79022 v -6.6675 q 0,-1.55575 -0.56797,-2.32128 -0.54328,-0.79022 -1.95086,-0.79022 -2.17311,0 -3.556,2.37067 v 7.40833 q 0,0.4692 -0.34572,0.79022 -0.32103,0.32103 -0.79022,0.32103 -0.4692,0 -0.79023,-0.32103 -0.32102,-0.32102 -0.32102,-0.79022 v -6.6675 q 0,-1.55575 -0.56798,-2.32128 -0.54327,-0.79022 -1.95086,-0.79022 -2.17311,0 -3.556,2.37067 v 7.40833 q 0,0.4692 -0.34572,0.79022 -0.32103,0.32103 -0.79022,0.32103 -0.4692,0 -0.79022,-0.32103 -0.32103,-0.32102 -0.32103,-0.79022 v -10.59392 q 0,-0.46919 0.32103,-0.79022 0.32102,-0.34572 0.79022,-0.34572 0.46919,0 0.79022,0.34572 0.34572,0.32103 0.34572,0.79022 z" />
      <path
         inkscape:connector-curvature="0"
         id="path927"
         style="font-style:normal;font-variant:normal;font-weight:normal;font-stretch:normal;font-size:24.69444466px;font-family:'Varela Round';-inkscape-font-specification:'Varela Round';fill:#ffffff;fill-opacity:1;stroke-width:0.26458332"
         d="m 158.6596,141.71571 q 1.82739,-1.87678 4.22275,-1.87678 2.39536,0 4.09928,1.70391 1.87678,1.87678 1.87678,4.84012 0,3.01272 -1.87678,4.8648 -1.72861,1.67922 -4.12397,1.67922 -2.37067,0 -4.19806,-1.87677 v 6.29708 q 0,0.49389 -0.32103,0.81492 -0.32103,0.32102 -0.81491,0.32102 -0.4692,0 -0.79023,-0.32102 -0.32102,-0.32103 -0.32102,-0.81492 v -16.27364 q 0,-0.46919 0.32102,-0.79022 0.32103,-0.32103 0.79023,-0.32103 0.49388,0 0.81491,0.32103 0.32103,0.32103 0.32103,0.79022 z m 0,7.26016 q 1.67922,1.85209 3.90172,1.85209 2.81517,0 3.75356,-2.51884 0.29633,-0.83961 0.29633,-1.92616 0,-2.12373 -1.13594,-3.33375 -1.08656,-1.11125 -2.91395,-1.11125 -2.2225,0 -3.90172,1.85208 z" />
      <path
         inkscape:connector-curvature="0"
         id="path929"
         style="font-style:normal;font-variant:normal;font-weight:normal;font-stretch:normal;font-size:24.69444466px;font-family:'Varela Round';-inkscape-font-specification:'Varela Round';fill:#ffffff;fill-opacity:1;stroke-width:0.26458332"
         d="m 172.18868,135.66557 q 0,-0.49389 0.32103,-0.81492 0.32103,-0.32103 0.79022,-0.32103 0.49389,0 0.81492,0.32103 0.32103,0.32103 0.32103,0.81492 v 16.02669 q 0,0.4692 -0.32103,0.79022 -0.32103,0.32103 -0.81492,0.32103 -0.46919,0 -0.79022,-0.32103 -0.32103,-0.32102 -0.32103,-0.79022 z" />
      <path
         inkscape:connector-curvature="0"
         id="path931"
         style="font-style:normal;font-variant:normal;font-weight:normal;font-stretch:normal;font-size:24.69444466px;font-family:'Varela Round';-inkscape-font-specification:'Varela Round';fill:#ffffff;fill-opacity:1;stroke-width:0.26458332"
         d="m 180.08164,147.17318 q 0.19756,1.67922 1.25942,2.667 1.06186,0.98778 2.96333,0.98778 1.90148,0 3.18559,-0.64206 0.4445,-0.22225 0.76553,-0.22225 0.32102,0 0.61736,0.27164 0.29633,0.27164 0.29633,0.61736 0,0.64206 -0.54328,0.93839 -0.51858,0.27164 -0.93839,0.46919 -0.4198,0.19756 -0.91369,0.34573 -1.11125,0.32102 -2.56822,0.32102 -3.03742,0 -4.71664,-1.70391 -1.67922,-1.70392 -1.67922,-4.84011 0,-2.71639 1.40758,-4.51909 1.58044,-2.02494 4.49439,-2.02494 2.76578,0 4.37091,1.87678 1.50637,1.7533 1.50637,4.34622 0,0.46919 -0.32103,0.79022 -0.29634,0.32103 -0.81492,0.32103 z m 3.63009,-5.43278 q -2.19781,0 -3.21028,1.95086 -0.37042,0.69145 -0.41981,1.65453 h 7.28487 q -0.0988,-1.75331 -1.28412,-2.76578 -0.98777,-0.83961 -2.37066,-0.83961 z" />
    </g>
  </g>
</svg>
