<?xml version="1.0" encoding="UTF-8" standalone="no"?>
<!-- Created with Inkscape (http://www.inkscape.org/) -->

<svg
   xmlns:dc="http://purl.org/dc/elements/1.1/"
   xmlns:cc="http://creativecommons.org/ns#"
   xmlns:rdf="http://www.w3.org/1999/02/22-rdf-syntax-ns#"
   xmlns:svg="http://www.w3.org/2000/svg"
   xmlns="http://www.w3.org/2000/svg"
   xmlns:sodipodi="http://sodipodi.sourceforge.net/DTD/sodipodi-0.dtd"
   xmlns:inkscape="http://www.inkscape.org/namespaces/inkscape"
   width="183.19942mm"
   height="53.997063mm"
   viewBox="0 0 183.19942 53.997063"
   version="1.1"
   id="svg8"
   sodipodi:docname="sailing_logo_path_alt.svg"
   inkscape:version="0.92.2 2405546, 2018-03-11">
  <defs
     id="defs2" />
  <sodipodi:namedview
     id="base"
     pagecolor="#ffffff"
     bordercolor="#666666"
     borderopacity="1.0"
     inkscape:pageopacity="0.0"
     inkscape:pageshadow="2"
     inkscape:zoom="2"
     inkscape:cx="227.21484"
     inkscape:cy="113.91015"
     inkscape:document-units="mm"
     inkscape:current-layer="layer1"
     showgrid="false"
     inkscape:window-width="3200"
     inkscape:window-height="1658"
     inkscape:window-x="0"
     inkscape:window-y="58"
     inkscape:window-maximized="1"
     inkscape:pagecheckerboard="true"
     fit-margin-top="4"
     fit-margin-left="2"
     fit-margin-right="2"
     fit-margin-bottom="4" />
  <metadata
     id="metadata5">
    <rdf:RDF>
      <cc:Work
         rdf:about="">
        <dc:format>image/svg+xml</dc:format>
        <dc:type
           rdf:resource="http://purl.org/dc/dcmitype/StillImage" />
        <dc:title></dc:title>
      </cc:Work>
    </rdf:RDF>
  </metadata>
  <g
     inkscape:groupmode="layer"
     id="layer2"
     inkscape:label="hex"
     style="display:inline"
     transform="translate(-8.3895954,-116.8621)" />
  <g
     inkscape:label="logo"
     inkscape:groupmode="layer"
     id="layer1"
     style="display:inline"
     transform="translate(-8.3895954,-116.8621)">
    <path
       inkscape:connector-curvature="0"
       id="path4846"
       d="m 30.389598,166.24205 -9.691438,-5.59536 -9.691444,-5.59535 9e-6,-11.19071 -10e-6,-11.19071 9.691445,-5.59535 9.691434,-5.59536 9.691437,5.59536 9.691444,5.59535 -1e-5,11.19071 1e-5,11.19071 -9.691444,5.59535 z"
       inkscape:transform-center-y="-1.0292717e-05"
       inkscape:transform-center-x="-3.3125827e-05"
       style="opacity:1;fill:#081c92;fill-opacity:1;stroke:#081c92;stroke-width:1.23424006;stroke-linecap:butt;stroke-linejoin:round;stroke-miterlimit:4;stroke-dasharray:none;stroke-opacity:1;paint-order:normal" />
    <path
       inkscape:connector-curvature="0"
       style="color:#000000;font-style:normal;font-variant:normal;font-weight:normal;font-stretch:normal;font-size:medium;line-height:normal;font-family:sans-serif;font-variant-ligatures:normal;font-variant-position:normal;font-variant-caps:normal;font-variant-numeric:normal;font-variant-alternates:normal;font-feature-settings:normal;text-indent:0;text-align:start;text-decoration:none;text-decoration-line:none;text-decoration-style:solid;text-decoration-color:#000000;letter-spacing:normal;word-spacing:normal;text-transform:none;writing-mode:lr-tb;direction:ltr;text-orientation:mixed;dominant-baseline:auto;baseline-shift:baseline;text-anchor:start;white-space:normal;shape-padding:0;clip-rule:nonzero;display:inline;overflow:visible;visibility:visible;opacity:1;isolation:auto;mix-blend-mode:normal;color-interpolation:sRGB;color-interpolation-filters:linearRGB;solid-color:#000000;solid-opacity:1;vector-effect:none;fill:#ffffff;fill-opacity:1;fill-rule:nonzero;stroke:#ffffff;stroke-width:0.09600001;stroke-linecap:round;stroke-linejoin:bevel;stroke-miterlimit:4;stroke-dasharray:none;stroke-dashoffset:0;stroke-opacity:1;color-rendering:auto;image-rendering:auto;shape-rendering:auto;text-rendering:auto;enable-background:accumulate"
       d="m 30.314023,132.10114 c -6.123391,0.0246 -11.371128,4.31534 -12.653204,10.24814 h 0.410271 c 1.274234,-5.7083 6.335992,-9.82435 12.244088,-9.84829 h 1.7e-4 6.4e-4 c 0.0167,-3e-5 0.03355,-3e-5 0.05027,0 h 1.69e-4 1.7e-4 c 4.374166,4e-5 8.225808,2.22697 10.484778,5.609 h 0.475257 c -2.309715,-3.61255 -6.356032,-6.00869 -10.960035,-6.00885 -0.01741,-4e-5 -0.03468,-4e-5 -0.05209,0 h -3.2e-4 z m 11.28266,7.27885 c 0.875875,1.71661 1.369859,3.66085 1.369878,5.72096 -6.4e-4,0.43796 -0.02483,0.8739 -0.07077,1.30638 h 0.402166 c 0.04434,-0.43248 0.06745,-0.86824 0.06813,-1.30589 v -1.7e-4 -1.7e-4 c 7e-6,-2.05283 -0.476972,-3.99446 -1.325069,-5.72112 z m -24.131324,4.23929 -0.06565,0.54868 -3.52e-4,0.005 c -0.02209,0.30897 -0.03311,0.61859 -0.03307,0.92835 v 1.7e-4 3.2e-4 c 0.0047,2.18166 0.558674,4.3177 1.598413,6.21622 h 0.461533 c -1.07819,-1.8874 -1.655325,-4.02781 -1.660095,-6.21671 v -3.2e-4 -1.7e-4 c -2.3e-5,-0.29881 0.0107,-0.59757 0.03192,-0.89562 l 0.07011,-0.58572 z m 25.229509,4.05805 c -0.347305,1.64416 -1.022755,3.20988 -1.992477,4.60226 h 0.487658 c 0.932182,-1.40183 1.580163,-2.96539 1.913767,-4.60226 z"
       id="path891" />
    <path
       style="fill:none;stroke:#ffffff;stroke-width:0.54400003;stroke-linecap:round;stroke-linejoin:miter;stroke-miterlimit:4;stroke-dasharray:none;stroke-opacity:1"
       d="m 17.890021,142.34928 4.530002,0.009 v 0"
       id="path4693"
       inkscape:connector-curvature="0" />
    <path
       style="fill:none;stroke:#ffffff;stroke-width:0.54400003;stroke-linecap:round;stroke-linejoin:miter;stroke-miterlimit:4;stroke-dasharray:none;stroke-opacity:1"
       d="m 37.334651,139.53401 4.530025,-0.009 v 0"
       id="path4693-5"
       inkscape:connector-curvature="0" />
    <path
       style="fill:none;stroke:#ffffff;stroke-width:0.54400003;stroke-linecap:round;stroke-linejoin:miter;stroke-miterlimit:4;stroke-dasharray:none;stroke-opacity:1"
       d="m 41.877707,146.23606 1.067469,-0.0344 v 0"
       id="path4693-5-3"
       inkscape:connector-curvature="0" />
    <path
       style="fill:none;stroke:#ffffff;stroke-width:0.54400003;stroke-linecap:round;stroke-linejoin:miter;stroke-miterlimit:4;stroke-dasharray:none;stroke-opacity:1"
       d="m 37.866628,152.3707 7.150576,0.006 v 0"
       id="path4693-56"
       inkscape:connector-curvature="0" />
    <path
       style="fill:none;stroke:#ffffff;stroke-width:0.54400003;stroke-linecap:round;stroke-linejoin:miter;stroke-miterlimit:4;stroke-dasharray:none;stroke-opacity:1"
       d="m 15.762494,152.37023 6.127686,0.007 v 0"
       id="path4693-56-2"
       inkscape:connector-curvature="0" />
    <path
       style="fill:none;stroke:#ffffff;stroke-width:0.54400003;stroke-linecap:round;stroke-linejoin:miter;stroke-miterlimit:4;stroke-dasharray:none;stroke-opacity:1"
       d="m 29.433953,136.09664 v 14.30593"
       id="path4755"
       inkscape:connector-curvature="0" />
    <path
       style="fill:none;stroke:#ffffff;stroke-width:0.54400003;stroke-linecap:round;stroke-linejoin:round;stroke-miterlimit:4;stroke-dasharray:none;stroke-opacity:1"
       d="m 29.374175,139.7537 -3.227652,8.73927 h 1.314973"
       id="path4757"
       inkscape:connector-curvature="0" />
    <path
       style="fill:none;stroke:#ffffff;stroke-width:0.54400003;stroke-linecap:round;stroke-linejoin:round;stroke-miterlimit:4;stroke-dasharray:none;stroke-opacity:1"
       d="m 29.527588,138.43838 4.862864,10.59923 h -2.998787"
       id="path4761"
       inkscape:connector-curvature="0" />
    <path
       style="fill:none;stroke:#ffffff;stroke-width:0.54400003;stroke-linecap:round;stroke-linejoin:round;stroke-miterlimit:4;stroke-dasharray:none;stroke-opacity:1;paint-order:stroke fill markers"
       d="m 33.677729,152.21999 0.657497,-1.735 h -8.786418 l 1.195437,1.79927 h 5.498969"
       id="path4763"
       inkscape:connector-curvature="0"
       sodipodi:nodetypes="ccccc" />
    <path
       style="fill:none;stroke:#ffffff;stroke-width:0.54400003;stroke-linecap:round;stroke-linejoin:miter;stroke-miterlimit:4;stroke-dasharray:none;stroke-opacity:1"
       d="m 29.587316,137.19434 h 1.115539 v 0"
       id="path4765"
       inkscape:connector-curvature="0" />
    <path
       style="fill:none;stroke:#ffffff;stroke-width:0.54400003;stroke-linecap:round;stroke-linejoin:miter;stroke-miterlimit:4;stroke-dasharray:none;stroke-opacity:1"
       d="m 20.675271,153.83328 2.552614,0.0158 v 0"
       id="path4693-56-2-9"
       inkscape:connector-curvature="0" />
    <path
       style="fill:none;stroke:#ffffff;stroke-width:0.54400003;stroke-linecap:round;stroke-linejoin:miter;stroke-miterlimit:4;stroke-dasharray:none;stroke-opacity:1"
       d="m 25.084548,153.83979 14.891402,0.003 v 0"
       id="path4693-56-2-9-1"
       inkscape:connector-curvature="0" />
    <path
       style="fill:none;stroke:#ffffff;stroke-width:0.54400003;stroke-linecap:round;stroke-linejoin:miter;stroke-miterlimit:4;stroke-dasharray:none;stroke-opacity:1"
       d="m 35.328449,155.4043 2.55263,0.0158 v 0"
       id="path4693-56-2-9-2"
       inkscape:connector-curvature="0" />
    <path
       style="fill:none;stroke:#ffffff;stroke-width:0.54400003;stroke-linecap:round;stroke-linejoin:miter;stroke-miterlimit:4;stroke-dasharray:none;stroke-opacity:1"
       d="m 23.326078,155.40994 9.964924,0.005 v 0"
       id="path4693-56-2-9-1-7"
       inkscape:connector-curvature="0" />
    <g
       id="text4891"
       style="font-style:normal;font-variant:normal;font-weight:normal;font-stretch:normal;font-size:4.23333311px;line-height:1.25;font-family:'Liberation Sans';-inkscape-font-specification:'Liberation Sans';letter-spacing:0px;word-spacing:0px;fill:#081c92;fill-opacity:1;stroke:none;stroke-width:0.26458332"
       aria-label="kubesimple">
      <path
         inkscape:connector-curvature="0"
         id="path913"
         style="font-style:normal;font-variant:normal;font-weight:normal;font-stretch:normal;font-size:24.69444466px;font-family:'Varela Round';-inkscape-font-specification:'Varela Round';fill:#081c92;fill-opacity:1;stroke-width:0.26458332"
         d="m 67.694528,151.05021 q 0.246944,0.32102 0.246944,0.74083 0,0.4198 -0.321028,0.71614 -0.321027,0.29633 -0.716139,0.29633 -0.592666,0 -1.012472,-0.46919 l -4.247444,-5.7785 -2.148417,1.95086 v 3.18558 q 0,0.4692 -0.345722,0.79022 -0.321028,0.32103 -0.790222,0.32103 -0.469195,0 -0.790223,-0.32103 -0.321027,-0.32102 -0.321027,-0.79022 v -16.02669 q 0,-0.4692 0.321027,-0.79023 0.321028,-0.34572 0.790223,-0.34572 0.469194,0 0.790222,0.34572 0.345722,0.32103 0.345722,0.79023 v 10.10002 l 5.877278,-5.43277 q 0.395111,-0.32103 0.889,-0.32103 0.493889,0 0.716139,0.37042 0.22225,0.34572 0.22225,0.59266 0,0.54328 -0.419806,0.96309 l -3.556,3.18558 z" />
      <path
         inkscape:connector-curvature="0"
         id="path915"
         style="font-style:normal;font-variant:normal;font-weight:normal;font-stretch:normal;font-size:24.69444466px;font-family:'Varela Round';-inkscape-font-specification:'Varela Round';fill:#081c92;fill-opacity:1;stroke-width:0.26458332"
         d="m 75.618357,150.85265 q 2.173111,0 4.049889,-2.37067 v -7.40833 q 0,-0.46919 0.321028,-0.79022 0.345722,-0.32103 0.814917,-0.32103 0.469194,0 0.790222,0.32103 0.321028,0.32103 0.321028,0.79022 v 10.59392 q 0,0.49389 -0.321028,0.81491 -0.321028,0.32103 -0.790222,0.32103 -0.469195,0 -0.814917,-0.32103 -0.321028,-0.32102 -0.321028,-0.81491 v -1.01248 q -0.987778,1.03717 -1.703917,1.45698 -1.407583,0.81491 -2.691694,0.81491 -1.259417,0 -2.074333,-0.37041 -0.814917,-0.39511 -1.382889,-1.06186 -1.160639,-1.3582 -1.160639,-3.40784 v -7.01322 q 0,-0.46919 0.321028,-0.79022 0.345722,-0.32103 0.814916,-0.32103 0.469195,0 0.790223,0.32103 0.321027,0.32103 0.321027,0.79022 v 6.76628 q 0,1.40758 0.617361,2.2225 0.642056,0.79022 2.099028,0.79022 z" />
      <path
         inkscape:connector-curvature="0"
         id="path917"
         style="font-style:normal;font-variant:normal;font-weight:normal;font-stretch:normal;font-size:24.69444466px;font-family:'Varela Round';-inkscape-font-specification:'Varela Round';fill:#081c92;fill-opacity:1;stroke-width:0.26458332"
         d="m 88.048924,141.71571 q 1.827389,-1.87678 4.22275,-1.87678 2.395361,0 4.099278,1.70391 1.876777,1.87678 1.876777,4.84012 0,3.01272 -1.876777,4.8648 -1.728611,1.67922 -4.123973,1.67922 -2.370666,0 -4.198055,-1.87677 v 0.64205 q 0,0.4692 -0.321028,0.79022 -0.321028,0.32103 -0.814917,0.32103 -0.469194,0 -0.790222,-0.32103 -0.321028,-0.32102 -0.321028,-0.79022 v -16.02669 q 0,-0.49389 0.321028,-0.81492 0.321028,-0.32103 0.790222,-0.32103 0.493889,0 0.814917,0.32103 0.321028,0.32103 0.321028,0.81492 z m 0,7.26016 q 1.679222,1.85209 3.901722,1.85209 2.815167,0 3.753556,-2.51884 0.296333,-0.83961 0.296333,-1.92616 0,-2.12373 -1.135944,-3.33375 -1.086556,-1.11125 -2.913945,-1.11125 -2.2225,0 -3.901722,1.85208 z" />
      <path
         inkscape:connector-curvature="0"
         id="path919"
         style="font-style:normal;font-variant:normal;font-weight:normal;font-stretch:normal;font-size:24.69444466px;font-family:'Varela Round';-inkscape-font-specification:'Varela Round';fill:#081c92;fill-opacity:1;stroke-width:0.26458332"
         d="m 102.91151,147.17318 q 0.19755,1.67922 1.25941,2.667 1.06186,0.98778 2.96334,0.98778 1.90147,0 3.18558,-0.64206 0.4445,-0.22225 0.76553,-0.22225 0.32102,0 0.61736,0.27164 0.29633,0.27164 0.29633,0.61736 0,0.64206 -0.54328,0.93839 -0.51858,0.27164 -0.93839,0.46919 -0.4198,0.19756 -0.91369,0.34573 -1.11125,0.32102 -2.56822,0.32102 -3.03742,0 -4.71664,-1.70391 -1.67922,-1.70392 -1.67922,-4.84011 0,-2.71639 1.40758,-4.51909 1.58044,-2.02494 4.49439,-2.02494 2.76578,0 4.37092,1.87678 1.50636,1.7533 1.50636,4.34622 0,0.46919 -0.32103,0.79022 -0.29633,0.32103 -0.81492,0.32103 z m 3.63008,-5.43278 q -2.19781,0 -3.21028,1.95086 -0.37042,0.69145 -0.4198,1.65453 h 7.28486 q -0.0988,-1.75331 -1.28411,-2.76578 -0.98778,-0.83961 -2.37067,-0.83961 z" />
      <path
         inkscape:connector-curvature="0"
         id="path921"
         style="font-style:normal;font-variant:normal;font-weight:normal;font-stretch:normal;font-size:24.69444466px;font-family:'Varela Round';-inkscape-font-specification:'Varela Round';fill:#081c92;fill-opacity:1;stroke-width:0.26458332"
         d="m 119.4645,150.85265 q 2.74109,0 2.74109,-1.75331 0,-0.54327 -0.54328,-0.81491 -0.54328,-0.29634 -1.38289,-0.51859 -0.81492,-0.22225 -1.778,-0.4445 -0.96308,-0.24694 -1.8027,-0.66675 -0.81491,-0.4198 -1.35819,-1.08655 -0.54328,-0.69145 -0.54328,-1.67922 0,-0.98778 0.29634,-1.70392 0.29633,-0.71614 0.889,-1.23472 1.3088,-1.11125 3.63008,-1.11125 1.85208,0 3.58069,0.61736 0.34573,0.12347 0.51859,0.39511 0.19755,0.27164 0.19755,0.61736 0,0.32103 -0.29633,0.61736 -0.27164,0.29634 -0.54328,0.29634 -0.27164,0 -0.66675,-0.12348 -1.18533,-0.37041 -2.59291,-0.37041 -1.40759,0 -2.14842,0.49389 -0.71614,0.49388 -0.71614,1.18533 0,0.69144 0.54328,1.03717 0.56797,0.32102 1.38289,0.54327 0.81491,0.22225 1.778,0.4445 0.98777,0.22225 1.80269,0.61736 1.92617,0.98778 1.92617,3.06212 0,1.58044 -1.18534,2.56822 -1.28411,1.08655 -3.58069,1.08655 -2.49414,0 -4.49439,-1.11125 -0.41981,-0.29633 -0.41981,-0.74083 0,-0.4445 0.27164,-0.74083 0.27164,-0.32103 0.59267,-0.32103 0.32103,0 0.76553,0.19755 1.43228,0.64206 3.13619,0.64206 z" />
      <path
         inkscape:connector-curvature="0"
         id="path923"
         style="font-style:normal;font-variant:normal;font-weight:normal;font-stretch:normal;font-size:24.69444466px;font-family:'Varela Round';-inkscape-font-specification:'Varela Round';fill:#081c92;fill-opacity:1;stroke-width:0.26458332"
         d="m 127.42769,141.09834 q 0,-0.49388 0.32102,-0.81491 0.32103,-0.32103 0.79023,-0.32103 0.49389,0 0.81491,0.32103 0.32103,0.32103 0.32103,0.81491 v 10.59392 q 0,0.4692 -0.32103,0.79022 -0.32102,0.32103 -0.81491,0.32103 -0.4692,0 -0.79023,-0.32103 -0.32102,-0.32102 -0.32102,-0.79022 z m 2.46944,-4.84011 q 0,0.51859 -0.37042,0.889 -0.37041,0.37042 -0.889,0.37042 h -0.14816 q -0.51859,0 -0.889,-0.37042 -0.37042,-0.37041 -0.37042,-0.889 v -0.0988 q 0,-0.51858 0.37042,-0.889 0.37041,-0.37041 0.889,-0.37041 h 0.14816 q 0.51859,0 0.889,0.37041 0.37042,0.37042 0.37042,0.889 z" />
      <path
         inkscape:connector-curvature="0"
         id="path925"
         style="font-style:normal;font-variant:normal;font-weight:normal;font-stretch:normal;font-size:24.69444466px;font-family:'Varela Round';-inkscape-font-specification:'Varela Round';fill:#081c92;fill-opacity:1;stroke-width:0.26458332"
         d="m 135.94264,142.11082 q 1.50636,-2.27189 4.19806,-2.27189 1.3335,0 2.42005,0.79022 0.889,0.61736 1.3582,1.75331 0.69144,-1.08656 1.35819,-1.53106 1.40759,-1.01247 3.18559,-1.01247 2.00025,0 3.13619,1.53105 0.98778,1.30881 0.98778,3.21028 v 7.112 q 0,0.4692 -0.34572,0.79022 -0.32103,0.32103 -0.79023,0.32103 -0.46919,0 -0.79022,-0.32103 -0.32103,-0.32102 -0.32103,-0.79022 v -6.6675 q 0,-1.55575 -0.56797,-2.32128 -0.54328,-0.79022 -1.95086,-0.79022 -2.17311,0 -3.556,2.37067 v 7.40833 q 0,0.4692 -0.34572,0.79022 -0.32103,0.32103 -0.79022,0.32103 -0.4692,0 -0.79023,-0.32103 -0.32102,-0.32102 -0.32102,-0.79022 v -6.6675 q 0,-1.55575 -0.56798,-2.32128 -0.54327,-0.79022 -1.95086,-0.79022 -2.17311,0 -3.556,2.37067 v 7.40833 q 0,0.4692 -0.34572,0.79022 -0.32103,0.32103 -0.79022,0.32103 -0.4692,0 -0.79022,-0.32103 -0.32103,-0.32102 -0.32103,-0.79022 v -10.59392 q 0,-0.46919 0.32103,-0.79022 0.32102,-0.34572 0.79022,-0.34572 0.46919,0 0.79022,0.34572 0.34572,0.32103 0.34572,0.79022 z" />
      <path
         inkscape:connector-curvature="0"
         id="path927"
         style="font-style:normal;font-variant:normal;font-weight:normal;font-stretch:normal;font-size:24.69444466px;font-family:'Varela Round';-inkscape-font-specification:'Varela Round';fill:#081c92;fill-opacity:1;stroke-width:0.26458332"
         d="m 158.6596,141.71571 q 1.82739,-1.87678 4.22275,-1.87678 2.39536,0 4.09928,1.70391 1.87678,1.87678 1.87678,4.84012 0,3.01272 -1.87678,4.8648 -1.72861,1.67922 -4.12397,1.67922 -2.37067,0 -4.19806,-1.87677 v 6.29708 q 0,0.49389 -0.32103,0.81492 -0.32103,0.32102 -0.81491,0.32102 -0.4692,0 -0.79023,-0.32102 -0.32102,-0.32103 -0.32102,-0.81492 v -16.27364 q 0,-0.46919 0.32102,-0.79022 0.32103,-0.32103 0.79023,-0.32103 0.49388,0 0.81491,0.32103 0.32103,0.32103 0.32103,0.79022 z m 0,7.26016 q 1.67922,1.85209 3.90172,1.85209 2.81517,0 3.75356,-2.51884 0.29633,-0.83961 0.29633,-1.92616 0,-2.12373 -1.13594,-3.33375 -1.08656,-1.11125 -2.91395,-1.11125 -2.2225,0 -3.90172,1.85208 z" />
      <path
         inkscape:connector-curvature="0"
         id="path929"
         style="font-style:normal;font-variant:normal;font-weight:normal;font-stretch:normal;font-size:24.69444466px;font-family:'Varela Round';-inkscape-font-specification:'Varela Round';fill:#081c92;fill-opacity:1;stroke-width:0.26458332"
         d="m 172.18868,135.66557 q 0,-0.49389 0.32103,-0.81492 0.32103,-0.32103 0.79022,-0.32103 0.49389,0 0.81492,0.32103 0.32103,0.32103 0.32103,0.81492 v 16.02669 q 0,0.4692 -0.32103,0.79022 -0.32103,0.32103 -0.81492,0.32103 -0.46919,0 -0.79022,-0.32103 -0.32103,-0.32102 -0.32103,-0.79022 z" />
      <path
         inkscape:connector-curvature="0"
         id="path931"
         style="font-style:normal;font-variant:normal;font-weight:normal;font-stretch:normal;font-size:24.69444466px;font-family:'Varela Round';-inkscape-font-specification:'Varela Round';fill:#081c92;fill-opacity:1;stroke-width:0.26458332"
         d="m 180.08164,147.17318 q 0.19756,1.67922 1.25942,2.667 1.06186,0.98778 2.96333,0.98778 1.90148,0 3.18559,-0.64206 0.4445,-0.22225 0.76553,-0.22225 0.32102,0 0.61736,0.27164 0.29633,0.27164 0.29633,0.61736 0,0.64206 -0.54328,0.93839 -0.51858,0.27164 -0.93839,0.46919 -0.4198,0.19756 -0.91369,0.34573 -1.11125,0.32102 -2.56822,0.32102 -3.03742,0 -4.71664,-1.70391 -1.67922,-1.70392 -1.67922,-4.84011 0,-2.71639 1.40758,-4.51909 1.58044,-2.02494 4.49439,-2.02494 2.76578,0 4.37091,1.87678 1.50637,1.7533 1.50637,4.34622 0,0.46919 -0.32103,0.79022 -0.29634,0.32103 -0.81492,0.32103 z m 3.63009,-5.43278 q -2.19781,0 -3.21028,1.95086 -0.37042,0.69145 -0.41981,1.65453 h 7.28487 q -0.0988,-1.75331 -1.28412,-2.76578 -0.98777,-0.83961 -2.37066,-0.83961 z" />
    </g>
  </g>
</svg>
